<?xml version="1.0" standalone="no"?>
<!DOCTYPE svg PUBLIC "-//W3C//DTD SVG 20010904//EN"
 "http://www.w3.org/TR/2001/REC-SVG-20010904/DTD/svg10.dtd">
<svg version="1.0" xmlns="http://www.w3.org/2000/svg"
 width="612.000000pt" height="612.000000pt" viewBox="0 0 612.000000 612.000000"
 preserveAspectRatio="xMidYMid meet">

<g transform="translate(0.000000,612.000000) scale(0.100000,-0.100000)"
fill="#000000" stroke="none">
<path d="M4375 4770 c-54 -32 -102 -57 -106 -54 -4 2 -9 1 -11 -4 -1 -4 -45
-31 -95 -60 l-93 -52 -790 0 -790 0 2 -222 3 -223 856 -3 c678 -2 858 1 866
10 5 7 19 40 32 73 21 54 48 117 73 168 4 9 21 52 37 95 16 42 52 131 80 197
28 66 51 123 51 127 0 13 -12 8 -115 -52z"/>
<path d="M4563 4687 c-24 -56 -49 -122 -56 -147 -8 -25 -46 -119 -86 -209 -39
-89 -71 -168 -71 -174 0 -5 -40 -105 -89 -221 -49 -116 -103 -248 -120 -292
-17 -45 -53 -134 -81 -197 -27 -64 -50 -121 -50 -126 0 -6 -36 -95 -79 -199
-44 -103 -97 -232 -119 -287 -23 -55 -62 -149 -87 -210 -26 -60 -49 -119 -52
-130 -5 -23 -2 -15 -88 -215 -37 -85 -81 -195 -100 -245 -18 -49 -42 -111 -54
-137 l-20 -48 113 0 113 0 42 98 c22 53 43 107 46 120 2 12 40 106 84 208 45
103 81 191 81 196 0 6 38 100 85 209 47 109 85 202 85 206 0 10 39 105 116
284 30 70 54 131 54 137 0 6 38 99 85 207 47 108 85 201 85 206 0 9 70 179
136 332 14 31 27 66 29 77 2 12 38 100 81 198 42 97 81 193 86 212 6 19 30 79
54 134 24 54 44 102 44 107 0 5 -51 9 -112 9 l-113 0 -42 -103z"/>
<path d="M1475 4435 c-55 -40 -403 -314 -772 -607 l-673 -533 0 -200 0 -200
647 -515 c356 -283 655 -523 665 -532 10 -10 20 -18 23 -18 3 0 5 134 5 298
l0 298 -475 334 c-261 184 -471 337 -467 341 4 3 178 127 387 275 209 147 382
271 385 274 7 9 362 259 372 262 5 2 7 137 6 300 l-3 297 -100 -74z"/>
<path d="M4850 4168 l0 -293 440 -309 c241 -170 437 -313 434 -318 -3 -4 -11
-8 -18 -8 -7 0 -23 -11 -36 -25 -13 -14 -29 -25 -36 -25 -7 0 -14 -3 -16 -7
-4 -9 -74 -63 -82 -63 -3 0 -17 -11 -32 -25 -15 -14 -31 -25 -36 -25 -5 0 -21
-11 -36 -25 -15 -14 -32 -25 -38 -25 -6 0 -21 -11 -34 -25 -13 -14 -29 -25
-36 -25 -7 0 -14 -3 -16 -7 -4 -9 -74 -63 -82 -63 -3 0 -17 -11 -32 -25 -15
-14 -31 -25 -36 -25 -5 0 -21 -11 -36 -25 -15 -14 -32 -25 -39 -25 -6 0 -13
-3 -15 -8 -4 -11 -126 -102 -136 -102 -5 0 -19 -11 -32 -25 -13 -14 -27 -25
-32 -25 -5 0 -21 -11 -36 -25 -15 -14 -32 -25 -39 -25 -7 0 -13 -4 -13 -10 0
-5 -5 -10 -10 -10 -6 0 -23 -11 -37 -24 -14 -13 -37 -30 -51 -38 -14 -7 -37
-23 -50 -35 -13 -12 -33 -25 -43 -28 -18 -6 -19 -21 -19 -307 0 -165 3 -298 8
-296 30 13 305 226 878 681 l664 529 -2 206 -3 206 -625 498 c-344 274 -628
498 -632 498 -5 0 -8 -132 -8 -292z"/>
<path d="M4074 4021 c-45 -31 -119 -83 -165 -116 l-84 -60 -810 -5 -810 -5 -3
-227 -2 -228 844 0 c663 0 846 3 853 13 8 10 48 103 108 252 7 17 26 62 44
101 17 39 31 78 31 87 0 9 4 18 9 22 5 3 17 29 27 58 9 28 21 57 25 63 18 22
38 104 26 103 -7 -1 -49 -27 -93 -58z"/>
<path d="M3795 3229 c-27 -12 -82 -36 -122 -55 -39 -19 -80 -37 -90 -39 -10
-2 -43 -16 -73 -32 l-55 -28 -850 -5 -850 -5 -3 -223 -2 -222 917 2 917 3 12
25 c10 23 23 52 52 120 6 14 31 69 56 122 25 54 46 104 46 111 0 7 6 21 13 32
7 11 26 49 41 85 66 152 67 140 -9 109z"/>
<path d="M3465 2445 c-38 -18 -73 -31 -77 -28 -5 2 -8 -1 -8 -7 0 -6 -4 -8
-10 -5 -5 3 -10 2 -10 -2 0 -5 -30 -21 -67 -37 -38 -15 -84 -35 -103 -44 -32
-15 -116 -17 -865 -22 l-830 -5 -3 -222 -2 -223 890 0 890 0 12 28 c6 15 12
33 14 39 7 34 176 396 187 401 4 2 7 11 7 21 0 9 7 27 16 39 8 12 13 22 9 22
-3 0 2 14 10 31 9 17 15 34 13 38 -2 4 -34 -7 -73 -24z"/>
</g>
</svg>
